<?xml version="1.0" standalone="no"?>
<!DOCTYPE svg PUBLIC "-//W3C//DTD SVG 20010904//EN"
 "http://www.w3.org/TR/2001/REC-SVG-20010904/DTD/svg10.dtd">
<svg version="1.0" xmlns="http://www.w3.org/2000/svg"
 width="500.000000pt" height="500.000000pt" viewBox="0 0 500.000000 500.000000"
 preserveAspectRatio="xMidYMid meet">

<g transform="translate(0.000000,500.000000) scale(0.100000,-0.100000)"
fill="#000000" stroke="none">
<path d="M793 3488 c2 -7 36 -113 76 -235 l72 -223 380 0 c253 0 387 -4 401
-11 64 -35 64 -243 0 -278 -13 -7 -87 -11 -186 -11 -91 0 -166 -3 -166 -7 0
-5 34 -110 76 -235 l76 -228 105 0 c76 0 114 4 139 16 78 37 149 153 192 313
23 88 26 113 26 291 0 178 -3 203 -26 291 -30 111 -74 204 -124 258 -65 73
-47 71 -574 71 -374 0 -471 -3 -467 -12z"/>
<path d="M2332 3479 c-70 -45 -72 -51 -243 -876 -87 -423 -159 -769 -159 -770
0 -2 -58 -3 -130 -3 -71 0 -130 -4 -130 -8 0 -29 94 -280 112 -299 l21 -23
357 0 357 0 46 228 c65 325 255 1245 263 1276 7 27 34 36 34 11 0 -14 -296
-1465 -306 -1497 -5 -17 14 -18 310 -18 l316 0 5 23 c4 18 204 989 272 1320 9
48 20 87 23 87 3 0 70 -316 149 -703 79 -386 146 -708 148 -714 4 -10 57 -13
219 -13 l214 0 0 139 c0 125 -2 141 -21 165 -19 25 -25 26 -115 26 -89 0 -94
1 -99 23 -3 12 -59 285 -125 607 -67 322 -142 687 -167 813 l-47 227 -136 0
c-135 -1 -148 -4 -177 -40 -8 -11 -343 -1597 -343 -1626 0 -2 -21 -4 -46 -4
-45 0 -46 1 -41 28 204 982 307 1495 307 1525 0 44 -22 92 -49 107 -12 6 -125
10 -295 10 l-276 0 -5 -22 c-3 -13 -79 -385 -170 -827 -91 -443 -169 -809
-175 -815 -6 -6 -13 -6 -19 0 -6 7 204 1051 326 1617 l11 47 -92 0 c-75 0 -97
-4 -124 -21z m382 -457 c4 -7 -226 -1147 -238 -1179 -8 -19 -126 -18 -126 1 0
24 230 1140 240 1164 8 19 17 22 64 22 30 0 57 -4 60 -8z"/>
<path d="M1042 2718 c3 -7 92 -274 198 -592 139 -418 199 -586 216 -603 22
-21 31 -23 143 -23 l119 0 -205 615 -205 615 -135 0 c-104 0 -134 -3 -131 -12z"/>
</g>
</svg>
